<?xml version="1.0"?>
<svg xmlns="http://www.w3.org/2000/svg" xmlns:xlink="http://www.w3.org/1999/xlink" version="1.1" id="Layer_1" x="0px" y="0px" viewBox="0 0 512 512" style="enable-background:new 0 0 512 512;" xml:space="preserve" width="512px" height="512px" class=""><g><circle style="fill:#C2001B" cx="255.996" cy="255.996" r="255.996" data-original="#FF3D62" class="" data-old_color="#FF3D62"/><path style="fill:#C2001B;" d="M512,255.999c0-19.838-2.258-39.15-6.528-57.691l-35.995-35.995l-50.322-44.031h-96.65  l-46.564-51.548H236.06v139.611H92.845l-50.322,44.031l167.123,167.02c-14.122,4.845-24.348,18.274-24.348,33.985v21.052  l37.414,37.414c10.896,1.415,22.005,2.152,33.287,2.152C397.385,512,512,397.385,512,255.999z" data-original="#C2001B" class=""/><polygon style="fill:#FFDF47" points="419.155,118.282 271.074,118.282 271.074,206.345 419.155,206.345 469.476,162.313 " data-original="#FFA91F" class="active-path" data-old_color="#FFA91F"/><polygon style="fill:#FFDF47;" points="92.845,206.345 240.926,206.345 240.926,294.407 92.845,294.407 42.524,250.376 " data-original="#FFDF47"/><rect x="236.06" y="66.734" style="fill:#FFFFFF;" width="39.883" height="357.841" data-original="#FFFFFF"/><rect x="255.996" y="66.734" style="fill:#E1E1E3;" width="19.936" height="357.841" data-original="#E1E1E3" class=""/><path style="fill:#0026FF" d="M326.7,451.381c0-19.756-16.164-35.92-35.92-35.92h-69.562c-19.757,0-35.92,16.164-35.92,35.92  v21.052H326.7V451.381z" data-original="#00E8F2" class="" data-old_color="#002DFF"/><path style="fill:#0026FF" d="M326.7,451.381c0-19.757-16.164-35.92-35.92-35.92h-34.784v56.973H326.7V451.381z" data-original="#00D9E0" class="" data-old_color="#00D9E0"/></g> </svg>
