<?xml version="1.0" encoding="iso-8859-1"?>
<!-- Generator: Adobe Illustrator 19.0.0, SVG Export Plug-In . SVG Version: 6.00 Build 0)  -->
<svg version="1.1" id="Layer_1" xmlns="http://www.w3.org/2000/svg" xmlns:xlink="http://www.w3.org/1999/xlink" x="0px" y="0px"
	 viewBox="0 0 509.287 509.287" style="enable-background:new 0 0 509.287 509.287;" xml:space="preserve">
<path style="fill:#FBD303;" d="M254.644,0C137.664,0,39.332,79.004,9.494,186.151h490.299C469.955,79.004,371.624,0,254.644,0z"/>
<path style="fill:#29B36F;" d="M9.494,186.151C3.391,207.852,0,230.909,0,254.644c0,140.715,113.928,254.644,254.644,254.644
	s254.644-113.928,254.644-254.644c0-23.735-3.391-46.453-9.494-68.493L9.494,186.151L9.494,186.151z"/>
<ellipse style="fill:#7CC259;" cx="315.338" cy="104.434" rx="51.539" ry="58.321"/>
<polygon style="fill:#611A21;" points="343.82,123.083 336.36,115.285 320.424,131.221 320.424,82.734 309.573,82.734 
	309.573,119.693 293.976,110.199 288.212,119.354 309.573,132.238 309.573,197.001 320.424,197.001 320.424,146.14 "/>
<ellipse style="fill:#7CC259;" cx="201.409" cy="138.342" rx="32.551" ry="36.62"/>
<polygon style="fill:#611A21;" points="219.38,150.209 214.633,145.462 204.461,155.295 204.461,124.779 197.679,124.779 
	197.679,147.836 187.846,142.072 184.456,147.836 197.679,155.974 197.679,197.001 204.461,197.001 204.461,164.789 "/>
<path style="fill:#414753;" d="M506.236,214.972c-1.356-7.799-2.713-15.258-4.747-22.718
	c-35.942,0.678-367.894,7.799-367.894,49.505c0,44.079,135.968,54.93,135.968,81.038c0,19.666-154.278,31.873-231.248,66.119
	c35.264,56.964,92.228,98.67,159.364,114.268c29.838-23.396,70.866-49.505,117.997-68.832
	c90.532-36.959,108.503-54.93,108.503-85.107c0-52.217-194.289-76.97-194.289-92.228C230.23,241.759,363.147,219.38,506.236,214.972
	z"/>
<path style="fill:#FBD303;" d="M503.523,200.731c-5.086,0.339-17.293,1.017-35.264,2.034
	c-24.074,1.356-212.26,10.172-279.735,33.568c-27.465,9.494-5.764,21.362-0.339,23.396c3.391,1.356,138.003,53.913,144.445,55.947
	c20.344,6.442,35.603,25.091,8.477,37.976c-11.868,5.425-243.454,89.176-251.253,94.601c1.695,1.356,3.391,3.052,5.086,4.408
	c7.121-5.086,235.656-89.176,248.201-94.601c36.959-16.276,12.885-37.976-8.816-46.114c-6.781-2.713-141.732-53.913-144.784-55.269
	c-4.069-1.695-18.988-11.189,0-17.293c69.849-22.718,254.644-33.568,278.718-35.264c18.31-1.017,30.517-2.034,35.603-2.034
	C503.523,201.409,503.523,201.07,503.523,200.731z"/>
<g>
</g>
<g>
</g>
<g>
</g>
<g>
</g>
<g>
</g>
<g>
</g>
<g>
</g>
<g>
</g>
<g>
</g>
<g>
</g>
<g>
</g>
<g>
</g>
<g>
</g>
<g>
</g>
<g>
</g>
</svg>
