<?xml version="1.0" encoding="iso-8859-1"?>
<!-- Generator: Adobe Illustrator 19.0.0, SVG Export Plug-In . SVG Version: 6.00 Build 0)  -->
<svg version="1.1" id="Capa_1" xmlns="http://www.w3.org/2000/svg" xmlns:xlink="http://www.w3.org/1999/xlink" x="0px" y="0px"
	 viewBox="0 0 512 512" style="enable-background:new 0 0 512 512;" xml:space="preserve">
<circle style="fill:#AD396B;" cx="256" cy="256" r="256"/>
<path style="fill:#5B3256;" d="M511.1,277.427c-53.404-53.404-105.363-105.362-105.363-105.362l-80.416-21.934l-43-43.868
	l-154.222,43.771L172.065,194l-43.872,43.865l104.638,104.638l-0.352,44.288l-37.894,18.947c0,0,51.532,50.942,103.638,102.776
	C412.621,489.526,501.38,394.701,511.1,277.427z"/>
<g>
	<polygon style="fill:#A3DBFF;" points="238.453,193.999 238.453,237.868 128.196,237.868 106.262,215.933 128.196,193.999 	"/>
	<polygon style="fill:#A3DBFF;" points="229.679,106.262 247.226,150.131 128.196,150.131 106.262,128.196 128.196,106.262 	"/>
</g>
<g>
	<polygon style="fill:#4EB9FF;" points="405.738,259.802 383.804,281.736 273.547,281.736 273.547,237.868 383.804,237.868 	"/>
	<polygon style="fill:#4EB9FF;" points="405.738,172.065 383.804,193.999 273.547,193.999 273.547,150.131 383.804,150.131 	"/>
</g>
<polygon style="fill:#D63D76;" points="256,106.262 238.453,167.678 282.321,150.131 282.321,106.262 "/>
<g>
	<polygon style="fill:#FF4181;" points="256,106.262 229.679,106.262 229.679,150.131 256,167.678 	"/>
	<polygon style="fill:#FF4181;" points="238.453,211.547 282.321,193.999 282.321,150.131 256,150.131 	"/>
</g>
<polygon style="fill:#FF755C;" points="256,150.131 229.679,150.131 229.679,193.999 256,211.547 "/>
<polygon style="fill:#D63D76;" points="238.453,255.415 282.321,237.868 282.321,193.999 256,193.999 "/>
<g>
	<polygon style="fill:#FF4181;" points="256,193.999 229.679,193.999 229.679,237.868 256,255.415 	"/>
	<polygon style="fill:#FF4181;" points="238.453,299.284 282.321,281.736 282.321,237.868 256,237.868 	"/>
</g>
<polygon style="fill:#FF755C;" points="256,237.868 229.679,237.868 229.679,281.736 256,299.284 "/>
<polygon style="fill:#FF9356;" points="238.453,396.964 282.321,396.964 282.321,281.736 256,281.736 "/>
<rect x="229.68" y="281.74" style="fill:#FFB14E;" width="26.321" height="115.23"/>
<polygon style="fill:#D63D76;" points="317.416,388.19 256,388.19 247.226,396.964 256,405.738 317.416,405.738 "/>
<rect x="194.58" y="388.19" style="fill:#FF4181;" width="61.42" height="17.547"/>
<g>
</g>
<g>
</g>
<g>
</g>
<g>
</g>
<g>
</g>
<g>
</g>
<g>
</g>
<g>
</g>
<g>
</g>
<g>
</g>
<g>
</g>
<g>
</g>
<g>
</g>
<g>
</g>
<g>
</g>
</svg>
